/* XPM */
static char * letters_xpm[] = {
"420 9 4 1",
" 	c None",
".	c #000000",
"+	c #FF0000",
"@	c #7F0000",
"..+..+++....++.+++..++++++++++..++.+...++++++....++...++....+...++...+.+++.++++..+++.++++..+++.++++++...++...++...++...++...++++++.....+.............+.......++......+..............+.....+........................................+.................................+++...+...+++..+++.+..+.+++++.+++.+++++.+++..+++......................................+...+++...........................................+...+..................",
".+.+.+..+..+..++..+.+....+.....+..++...+..+......++...++....+...++...++...++...++...++...++...+..+..+...++...++...++...++...+....+.....+.............+......+..+.....+......+......++.....+........................................+................................+...+.++..+...++...++..+.+....+...+....++...++...+.......................+...+........+...+...+....++.....++...++.......................+++..+..................",
"+...++...++....+...++....+....+....+...+..+......++..+.+....++.++++..++...++...++...++...++......+..+...++...++...+.+.+.+...+....+.....+.............+......+........+..............+.....+........................................+................................+...++.+......+....++..+.+....+........++...++...+............+.........+.....+...............+....++.....+.....+....+...++............+.+.+.+..........+...+.+.",
"+...++...++....+...++....+....+....+...+..+......++.+..+....+.+.++.+.++...++...++...++...++......+..+...++...++...+.+.+..+.+....+......+.............+......+........+......+......++.....+........................................+................................+...+..+......+....++..+.+....+........++...++...+.@+@..................+.....+...............+...+..+....+.....+...+.+.+..+.+...+.....+.+...+..........+..+++++",
"+...+++++.+....+...++++++++++.+....+++++..+......+++...+....+...++..+++...+++++.+...+++++..+++...+..+...++...++...+..+....+....+...+++.++++..+++..++++.+++..+....+++.+......+......++..+..+...++.+.++++..+++.++++..++++++++..++++.+++.+...++...++...++...++...+++++++...+..+.....+...++.+++++++++.++++....+..+++..++++.+++............+++...+.....+..............+....+..+....+.....+..+...++..+....+..+++..+++..+........+++++.+.+.",
"++++++...++....+...++....+....+.++++...+..+......++.+..+....+...++...++...++....+...++.+......+..+..+...++...++...+.+.+...+...+.......++...++...++...++...+++++++...+++++...+......++.+...+...+.+.++...++...++...++...++...++......+..+...++...++...+.+.+.+...+...+.+...+..+....+......+...+.....++...+..+..+...+....+.@+@..................+.....+.............+....+....+...+.....+........++....+.........+.+.+..........+..+++++",
"+...++...++....+...++....+....+...++...+..+..+...++..+.+....+...++...++...++....+..+++..+.....+..+..+...++...++.+.+.+.+...+..+.....+++++...++....+...+++++..+....+++++...+..+......+++....+...+...++...++...+++++..+++++.....+++...+..+...++...++...+..+...++++..+..+...+..+...+.......+...+.....++...+..+..+...+....+............+.........+.....+.............+....+....+...+.....+.......+..++.+....+++.+.+.+.+..........+...+.+.",
"+...++..+..+..++..+.+....+.....+..++...+..+..+...++...++....+...++...++...++.....+++++...++...+..+..+...+.+.+.++.+++...+..+..+....+...++...++...++...++.....+.......++...+..+...+..++.+...+...+...++...++...++........++........+..+..+...+.+.+.+.+.+.+.+.....+.+...+...+..+..+....+...+...+.+...++...+..+..+...+....+.......................+...+....+.............+......+..++...++.......+..+.+...+......+++.....................",
"+...++++....++.+++..++++++......++.+...++++++.+++.+...+++++++...++...+.+++.+........++...+.+++...+...+++...+..+...++...+..+..+++++.++++++++..+++..++++.+++..+...++++.+...+..+....++.+..+..+...+...++...+.+++.+........++....++++...+...+++...+...+.+.+...+.+++.+++++.+++.++++++++++.+++....+..+++..+++...+...+++.....+.......+.......................+..........+...+......+.................++.+............+...+...+++++.........."};
