/* XPM */
static char * misc_buttons_xpm[] = {
"45 15 68 1",
" 	c None",
".	c #979797",
"+	c #949494",
"@	c #939393",
"#	c #8C8C8C",
"$	c #868686",
"%	c #858585",
"&	c #818181",
"*	c #787878",
"=	c #747474",
"-	c #696969",
";	c #A5A5A5",
">	c #9F9F9F",
",	c #6B6B6B",
"'	c #767676",
")	c #676767",
"!	c #585858",
"~	c #BBBBBB",
"{	c #9A9A9A",
"]	c #616161",
"^	c #686868",
"/	c #999999",
"(	c #5C5C5C",
"_	c #5B5B5B",
":	c #4A4A4A",
"<	c #494949",
"[	c #626262",
"}	c #A6A6A6",
"|	c #555555",
"1	c #BCBCBC",
"2	c #504D4D",
"3	c #4F4F4F",
"4	c #3C3C3C",
"5	c #3B3B3B",
"6	c #3D3D3D",
"7	c #606060",
"8	c #9E9E9E",
"9	c #505050",
"0	c #7C7C7C",
"a	c #40403F",
"b	c #3F3F3F",
"c	c #2C2C2C",
"d	c #2D2D2D",
"e	c #2F2F2F",
"f	c #5E5E5E",
"g	c #ACACAC",
"h	c #5D5D5D",
"i	c #2E2E2E",
"j	c #303030",
"k	c #1C1C1C",
"l	c #2A2A2A",
"m	c #848484",
"n	c #1F1F1F",
"o	c #1B1B1B",
"p	c #0E0E0E",
"q	c #131313",
"r	c #545454",
"s	c #1A1A1A",
"t	c #101010",
"u	c #0D0D0D",
"v	c #030303",
"w	c #797979",
"x	c #454545",
"y	c #0A0A0A",
"z	c #0C0C0C",
"A	c #000000",
"B	c #919191",
"C	c #020202",
".++++++++++++@..++++++++++++@..++++++++++++@.",
"#$$$$$$$$$$$$%##$$$$$$$$$$$$%##$$$$$$$$$$$$%#",
"&*************&&*************&&*************&",
"=--;>,---,>;--'=-------------'=-------------'",
")!!>~{]!]{~>!!^)!!!!/(!!!!!!!^)!!!!!!!(/!!!!^",
"_:<[}~+|+~}[<<(_:<:</1/2:<:<<(_:<:<:2/1/<:<<(",
"34567}~8~}7444934545/1110a45493454a0111/54549",
"bccdefg1ghicccbbcccc/1110jcccbbcccj0111/ccccb",
"ckkklm~g~mlkkkcckkkk/1/nkkkkkcckkkkkn/1/kkkkc",
"oppq&~}r}~&qppsopppp/tpppppppsopppppppt/pppps",
"uvvw~}xyx}~wvvzuvvvvvvvvvvvvvzuvvvvvvvvvvvvvz",
"vAA%B6CAC6B%AAvvAAAAAAAAAAAAAvvAAAAAAAAAAAAAv",
"AAAAAAAAAAAAAAAAAAAAAAAAAAAAAAAAAAAAAAAAAAAAA",
"AAAAAAAAAAAAAAAAAAAAAAAAAAAAAAAAAAAAAAAAAAAAA",
"AAAAAAAAAAAAAAAAAAAAAAAAAAAAAAAAAAAAAAAAAAAAA"};
