/* XPM */
static char * netops_xpm[] = {
"120 24 168 2",
"  	c None",
". 	c #B9B9B9",
"+ 	c #B6B6B6",
"@ 	c #AEAEAE",
"# 	c #B2B2B2",
"$ 	c #A9A9A9",
"% 	c #A8A8A8",
"& 	c #A0A0A0",
"* 	c #A6A6A6",
"= 	c #939393",
"- 	c #8A8A8A",
"; 	c #9D9D9D",
"> 	c #AAAAAA",
", 	c #B1B1B1",
"' 	c #989898",
") 	c #040404",
"! 	c #1F1F1F",
"~ 	c #1C1C1C",
"{ 	c #030303",
"] 	c #000000",
"^ 	c #6C6C6C",
"/ 	c #ABABAB",
"( 	c #A7A7A7",
"_ 	c #9F9F9F",
": 	c #202020",
"< 	c #6B6B6B",
"[ 	c #656565",
"} 	c #191919",
"| 	c #6D6D6D",
"1 	c #636363",
"2 	c #454545",
"3 	c #0C0C0C",
"4 	c #171717",
"5 	c #0B0B0B",
"6 	c #999999",
"7 	c #6E6E6E",
"8 	c #ACACAC",
"9 	c #9C9C9C",
"0 	c #7E7E7E",
"a 	c #A2A2A2",
"b 	c #6FFD7C",
"c 	c #7BFD86",
"d 	c #66FD75",
"e 	c #38FD4D",
"f 	c #10FF2A",
"g 	c #00FF1D",
"h 	c #00FD1B",
"i 	c #FD4141",
"j 	c #FD5A5A",
"k 	c #FD5252",
"l 	c #FD2F2F",
"m 	c #FF0D0D",
"n 	c #FF0000",
"o 	c #FD0000",
"p 	c #F4FC7F",
"q 	c #F4FC88",
"r 	c #F2FC72",
"s 	c #EEFC43",
"t 	c #EDFF13",
"u 	c #EDFF01",
"v 	c #EAFC00",
"w 	c #EABC00",
"x 	c #EEBF00",
"y 	c #DEB400",
"z 	c #CAA600",
"A 	c #C1A000",
"B 	c #BF9F00",
"C 	c #BD9D00",
"D 	c #88FD92",
"E 	c #8FFD98",
"F 	c #5FFD6F",
"G 	c #21FF38",
"H 	c #03FF1F",
"I 	c #FD5959",
"J 	c #FD6F6F",
"K 	c #FD6D6D",
"L 	c #FD4C4C",
"M 	c #FF1919",
"N 	c #FF0202",
"O 	c #F5FC8E",
"P 	c #F6FC94",
"Q 	c #F5FC8F",
"R 	c #F2FC6F",
"S 	c #EFFF2A",
"T 	c #EDFF04",
"U 	c #F1C100",
"V 	c #F7C500",
"W 	c #ECBD00",
"X 	c #D3AC00",
"Y 	c #C3A100",
"Z 	c #87FD91",
"` 	c #8CFD96",
" .	c #69FD77",
"..	c #25FD3C",
"+.	c #FD7070",
"@.	c #FD6E6E",
"#.	c #FD4E4E",
"$.	c #FD1919",
"%.	c #F4FC89",
"&.	c #F5FC94",
"*.	c #F6FC93",
"=.	c #F3FC7B",
"-.	c #EDFC32",
";.	c #ECFF05",
">.	c #E5B800",
",.	c #F0C000",
"'.	c #EABB00",
").	c #D2AC00",
"!.	c #C2A000",
"~.	c #BE9E00",
"{.	c #6AFF79",
"].	c #7AFF86",
"^.	c #70FF7D",
"/.	c #48FF5A",
"(.	c #17FF30",
"_.	c #02FF1E",
":.	c #FF4040",
"<.	c #FF5959",
"[.	c #FF5454",
"}.	c #FF3232",
"|.	c #FF0E0E",
"1.	c #FF0101",
"2.	c #F4FF6F",
"3.	c #F7FF89",
"4.	c #F6FF85",
"5.	c #F3FF5F",
"6.	c #EEFF21",
"7.	c #EDFF03",
"8.	c #D1AB00",
"9.	c #DAB100",
"0.	c #D7AF00",
"a.	c #C9A600",
"b.	c #2AFF41",
"c.	c #35FF4A",
"d.	c #2CFF42",
"e.	c #16FD2F",
"f.	c #06FF21",
"g.	c #FF1616",
"h.	c #FF2323",
"i.	c #FF1F1F",
"j.	c #FD0E0E",
"k.	c #FF0303",
"l.	c #EFFF30",
"m.	c #F1FF46",
"n.	c #F0FF42",
"o.	c #ECFC24",
"p.	c #EDFF0A",
"q.	c #EDFF00",
"r.	c #C2A100",
"s.	c #C5A300",
"t.	c #C4A200",
"u.	c #C09F00",
"v.	c #05FD20",
"w.	c #06FD22",
"x.	c #04FD20",
"y.	c #01FD1D",
"z.	c #00FD1C",
"A.	c #FD0101",
"B.	c #FD0303",
"C.	c #FD0202",
"D.	c #EBFC05",
"E.	c #EBFC0B",
"F.	c #EBFC09",
"G.	c #EAFC03",
"H.	c #BE9D00",
"I.	c #00FF1C",
"J.	c #ECFF00",
"K.	c #BE9F00",
". + + + + + + + + + + + + + + + + + + + + + + + + + + + + + + + + + + + + + + + + + + + + + + + + + + + + + + + + + + @ . + + + + + + + + + + + + + + + + + + + + + + + + + + + + + + + + + + + + + + + + + + + + + + + + + + + + + + + + + + @ ",
"# $ $ $ $ $ $ $ $ $ $ $ $ $ $ $ $ $ $ $ $ $ $ $ $ $ $ $ $ $ $ $ $ $ $ $ $ $ $ $ $ $ $ $ $ $ $ $ $ $ $ $ $ $ $ $ $ $ % & # $ $ $ $ $ $ $ $ $ $ $ $ $ $ $ $ $ $ $ $ $ $ $ $ $ $ $ $ $ $ $ $ $ $ $ $ $ $ $ $ $ $ $ $ $ $ $ $ $ $ $ $ $ $ $ $ $ % & ",
"# * = - - - - - - - ; > > > > > > > > > > > > > > > > > > > > > > > > > > > > > > > > > > > > > > > > > > > > > > > % & # * = - - - - - - - ; > > > > > > > > > > > > > > > > > > > > > > > > > > > > > > > > > > > > > > > > > > > > > > > % & ",
", ' - ) ! ~ { ] ] ] ^ / % % % % % % % % % % % % % % % % % % % % % % % % % % % % % % % % % % % % % % % % % % % % % % ( _ , ' - ) ! ~ { ] ] ] ^ / % > > > > > > > > > > % % % % % % % % % % > > > > > > > > > > > > > > > > > > > > > > > > > ( _ ",
", ' - : < [ } ] ] ] | / % % % % % % % % % % % % % % % % % % % % % % % % % % % % % % % % % % % % % % % % % % % % % % ( _ , ' - : < [ } ] ] ] | / % % % % % % % % % % % % % % % % % % % % % % % % % % % % % % % % % % % % % % % % % % % % % % ( _ ",
", ' - ~ 1 2 3 ] ] ] | / % % % % % % % % % % % ] ] ] % ] ] ] % % ] ] ] % % ] ] ] % % % % % % % % % % % % % % % % % % ( _ , ' - ~ 1 2 3 ] ] ] | / % % % % % ] ] ] % % ] ] % % ] % % ] % ] ] ] ] % ] ] ] % % % ] ] % % ] ] ] % ] ] ] ] ] % % % ( _ ",
", ' - { 4 5 ] ] ] ] | / % % % % % % % % % % ] % % % % ] % % ] % ] % % ] % ] % % ] % % % % % % % % % % % % % % % % % ( _ , ' - { 4 5 ] ] ] ] | / % % % % ] % % % % ] % % ] % ] % % ] % ] % % % % ] % % ] % ] % % ] % ] % % ] % % ] % % % % % ( _ ",
"# 6 - ] ] ] ] ] ] ] 7 8 > > > > > > > > > > ] > > > > ] > > ] > ] > > ] > ] ] ] > > > > > > > > > > > > > > > > > > % & # 6 - ] ] ] ] ] ] ] 7 8 > % % % ] % % % % ] % > ] > ] > > ] > ] ] ] % % ] ] ] % % ] % % ] % ] ] ] % % % ] % % % % % % & ",
"# 6 - ] ] ] ] ] ] ] 7 8 > > > > > > > > > > ] > > > > ] > > ] > ] > > ] > ] > > ] > > > > > > > > > > > > > > > > > % & # 6 - ] ] ] ] ] ] ] 7 8 > > > > ] > > > > ] > > ] > > ] ] > > ] > > > > ] > ] > > ] ] ] ] > ] > ] > > > ] > > > > > % & ",
"# 6 - ] ] ] ] ] ] ] 7 8 > > > > > > > > > > > ] ] ] > ] ] ] > > ] ] ] > > ] ] ] > > > > > > > > > > > > > > > > > > % & # 6 - ] ] ] ] ] ] ] 7 8 > > > > > ] ] ] > > ] ] > > > ] ] > > ] ] ] ] > ] > > ] > ] > > ] > ] > > ] > > ] > > > > > % & ",
"# 6 - ] ] ] ] ] ] ] 7 8 > > > > > > > > > > > > > > > > > > > > > > > > > > > > > > > > > > > > > > > > > > > > > > % & # 6 - ] ] ] ] ] ] ] 7 8 > > > > > > > > > > > > > > > > > > > > > > > > > > > > > > > > > > > > > > > > > > > > > > % & ",
", ' - ] ] ] ] ] ] ] | / % % % % % % % % % % % % % % % % % % % % % % % % % % % % % % % % % % % % % % % % % % % % % % ( _ , ' - ] ] ] ] ] ] ] | / % > > > > > > > > > > % % % % % % % % % % > > > > > > > > > > > > > > > > > > > > > > > > > ( _ ",
", 9 - - - - - - - - 0 / % % % % % % % % % % % % % % % % % % % % % % % % % % % % % % % % % % % % % % % % % % % % % % ( _ , 9 - - - - - - - - 0 / % % % % % % % % % % % % % % % % % % % % % % % % % % % % % % % % % % % % % % % % % % % % % % ( _ ",
", % > @ @ @ @ @ @ @ / ( ( ( ( ( ( ( ( ( ( ( ( ( ( ( ( ( ( ( ( ( ( ( ( ( ( ( ( ( ( ( ( ( ( ( ( ( ( ( ( ( ( ( ( ( ( ( * _ , % > @ @ @ @ @ @ @ / ( ( % % % % % % % % % % ( ( ( ( ( ( ( ( ( ( % % % % % % % % % % % % % % % % % % % % % % % % % * _ ",
"@ a a a a a a a a a a a a a a a a a a a a a a a a a a a a a a a a a a a a a a a a a a a a a a a a a a a a a a a a a a _ @ a a a a a a a a a a a a a a a a a a a a a a a a a a a a a a a a a a a a a a a a a a a a a a a a a a a a a a a a a a _ ",
"b c d e f g h i j k l m n o ) ! ~ { ] ] ] p q r s t u v w x y z A B C ] ] ] ] ] ] ] ] ] ] ] ] ] ] ] ] ] ] ] ] ] ] ] ] ] ] ] ] ] ] ] ] ] ] ] ] ] ] ] ] ] ] ] ] ] ] ] ] ] ] ] ] ] ] ] ] ] ] ] ] ] ] ] ] ] ] ] ] ] ] ] ] ] ] ] ] ] ] ] ] ] ] ] ] ] ",
"D E D F G H h I J K L M N o : < [ } ] ] ] O P Q R S T v U V W X Y B C ] ] ] ] ] ] ] ] ] ] ] ] ] ] ] ] ] ] ] ] ] ] ] ] ] ] ] ] ] ] ] ] ] ] ] ] ] ] ] ] ] ] ] ] ] ] ] ] ] ] ] ] ] ] ] ] ] ] ] ] ] ] ] ] ] ] ] ] ] ] ] ] ] ] ] ] ] ] ] ] ] ] ] ] ] ",
"Z E `  ...H h I +.@.#.$.N o ~ 1 2 3 ] ] ] %.&.*.=.-.;.v >.,.'.).!.~.C ] ] ] ] ] ] ] ] ] ] ] ] ] ] ] ] ] ] ] ] ] ] ] ] ] ] ] ] ] ] ] ] ] ] ] ] ] ] ] ] ] ] ] ] ] ] ] ] ] ] ] ] ] ] ] ] ] ] ] ] ] ] ] ] ] ] ] ] ] ] ] ] ] ] ] ] ] ] ] ] ] ] ] ] ] ",
"{.].^./.(._.h :.<.[.}.|.1.o { 4 5 ] ] ] ] 2.3.4.5.6.7.v 8.9.0.a.A B C ] ] ] ] ] ] ] ] ] ] ] ] ] ] ] ] ] ] ] ] ] ] ] ] ] ] ] ] ] ] ] ] ] ] ] ] ] ] ] ] ] ] ] ] ] ] ] ] ] ] ] ] ] ] ] ] ] ] ] ] ] ] ] ] ] ] ] ] ] ] ] ] ] ] ] ] ] ] ] ] ] ] ] ] ] ",
"b.c.d.e.f.g h g.h.i.j.k.n o ] ] ] ] ] ] ] l.m.n.o.p.q.v r.s.t.u.B B C ] ] ] ] ] ] ] ] ] ] ] ] ] ] ] ] ] ] ] ] ] ] ] ] ] ] ] ] ] ] ] ] ] ] ] ] ] ] ] ] ] ] ] ] ] ] ] ] ] ] ] ] ] ] ] ] ] ] ] ] ] ] ] ] ] ] ] ] ] ] ] ] ] ] ] ] ] ] ] ] ] ] ] ] ] ",
"v.w.x.y.z.h h A.B.C.o o o o ] ] ] ] ] ] ] D.E.F.G.v v v C H.H.C C C C ] ] ] ] ] ] ] ] ] ] ] ] ] ] ] ] ] ] ] ] ] ] ] ] ] ] ] ] ] ] ] ] ] ] ] ] ] ] ] ] ] ] ] ] ] ] ] ] ] ] ] ] ] ] ] ] ] ] ] ] ] ] ] ] ] ] ] ] ] ] ] ] ] ] ] ] ] ] ] ] ] ] ] ] ] ",
"g g g h g g h n n n o n n o ] ] ] ] ] ] ] q.q.q.v q.q.v B B B ~.B B C ] ] ] ] ] ] ] ] ] ] ] ] ] ] ] ] ] ] ] ] ] ] ] ] ] ] ] ] ] ] ] ] ] ] ] ] ] ] ] ] ] ] ] ] ] ] ] ] ] ] ] ] ] ] ] ] ] ] ] ] ] ] ] ] ] ] ] ] ] ] ] ] ] ] ] ] ] ] ] ] ] ] ] ] ] ",
"g g g h g g h n n n o n n o ] ] ] ] ] ] ] q.q.q.v q.q.v B B B H.B B C ] ] ] ] ] ] ] ] ] ] ] ] ] ] ] ] ] ] ] ] ] ] ] ] ] ] ] ] ] ] ] ] ] ] ] ] ] ] ] ] ] ] ] ] ] ] ] ] ] ] ] ] ] ] ] ] ] ] ] ] ] ] ] ] ] ] ] ] ] ] ] ] ] ] ] ] ] ] ] ] ] ] ] ] ] ",
"g g g I.g g h n n n n n n o ] ] ] ] ] ] ] q.q.q.J.q.q.v B B B K.B B C ] ] ] ] ] ] ] ] ] ] ] ] ] ] ] ] ] ] ] ] ] ] ] ] ] ] ] ] ] ] ] ] ] ] ] ] ] ] ] ] ] ] ] ] ] ] ] ] ] ] ] ] ] ] ] ] ] ] ] ] ] ] ] ] ] ] ] ] ] ] ] ] ] ] ] ] ] ] ] ] ] ] ] ] ] "};
