/* XPM */
static char * status_xpm[] = {
"60 12 6 1",
" 	c None",
".	c #696969",
"+	c #00FF00",
"@	c #00BF00",
"#	c #FF0000",
"$	c #FF9400",
"............................................................",
".+@.........................................................",
".+++@.........########.....$$..$$.....##.....##.............",
".+++++@.......########.....$$..$$.....###...###.............",
".+++++++@.....########.....$$..$$......###.###..............",
".+++++++++@...########.....$$..$$.......#####...............",
".+++++++++@...########.....$$..$$........###................",
".+++++++@.....########.....$$..$$.......#####...............",
".+++++@.......########.....$$..$$......###.###..............",
".+++@.........########.....$$..$$.....###...###.............",
".+@...................................##.....##.............",
"............................................................"};
